<?xml version="1.0" encoding="UTF-8"?>
<svg version="1.1" xmlns="http://www.w3.org/2000/svg" width="394" height="304">
<path d="M0 0 C130.02 0 260.04 0 394 0 C394 100.32 394 200.64 394 304 C263.98 304 133.96 304 0 304 C0 203.68 0 103.36 0 0 Z " fill="#191D1E" transform="translate(0,0)"/>
<path d="M0 0 C3.23879037 2.46842482 4.99361575 4.9807242 6.33203125 8.77734375 C6.91410162 13.60341622 6.85564903 18.41811075 6.81445312 23.27124023 C6.81664139 24.74383404 6.82064179 26.21642609 6.8263092 27.68901062 C6.83485346 30.85218943 6.8311192 34.01502835 6.81788635 37.17819023 C6.79746484 42.19459388 6.80756618 47.21065886 6.82214355 52.22706604 C6.8511321 63.79226103 6.84049174 75.35735565 6.82944489 86.92256927 C6.81973816 97.50298624 6.8186828 108.08322406 6.84932566 118.66361099 C6.86258986 123.63443122 6.85689484 128.60473569 6.83596039 133.57552421 C6.82687411 136.69130377 6.83453834 139.80689157 6.8463726 142.92265511 C6.84847547 144.34951071 6.84394938 145.77639701 6.83166695 147.20320129 C6.70380084 162.96781361 9.3106166 177.72324017 20.140625 189.79296875 C28.21113232 197.51112544 39.48751958 202.74686022 50.64453125 203.02734375 C62.85687734 202.72785842 74.55708956 199.0605722 83.73046875 190.6328125 C87.11570114 186.71089692 89.72141157 182.23682175 92.33203125 177.77734375 C95.75481525 179.48873575 96.48384417 183.56166468 97.89453125 186.96484375 C101.55127111 195.53211187 106.02809754 203.14066142 111.33203125 210.77734375 C101.6458248 223.0125519 88.92079349 230.61622503 74.33203125 235.77734375 C73.19507813 236.22787109 73.19507813 236.22787109 72.03515625 236.6875 C54.40161179 242.72446188 34.3550507 238.96689448 18.08203125 231.02734375 C-4.31875981 219.52321779 -18.21150073 201.66519346 -26.125 177.97265625 C-27.44119758 172.65105163 -27.79510795 167.36566767 -27.81513977 161.90171814 C-27.81881646 161.24660218 -27.82249315 160.59148623 -27.82628125 159.91651827 C-27.83721512 157.7411309 -27.84114408 155.56579145 -27.8449707 153.39038086 C-27.85124273 151.82274731 -27.85789017 150.25511523 -27.86488342 148.68748474 C-27.88582346 143.559896 -27.89627053 138.43230727 -27.90625 133.3046875 C-27.91030013 131.53569588 -27.91441713 129.7667044 -27.91860008 127.99771309 C-27.93762292 119.69181956 -27.95186479 111.3859348 -27.96021205 103.08002371 C-27.96999954 93.50073415 -27.99637051 83.92167472 -28.03671294 74.34246629 C-28.06686131 66.92912727 -28.08167936 59.51585434 -28.08499306 52.1024552 C-28.08734328 47.67790424 -28.09630146 43.25359999 -28.12145424 38.82911491 C-28.14472033 34.67001187 -28.14897426 30.51131836 -28.13869286 26.35216713 C-28.13819717 24.82757582 -28.14452736 23.3029644 -28.1582489 21.77843475 C-28.17596019 19.69379508 -28.16886788 17.61062693 -28.15571594 15.52598572 C-28.1581043 14.36071319 -28.16049265 13.19544065 -28.16295338 11.99485683 C-27.14688087 5.39015358 -22.76041952 1.56959432 -17.66796875 -2.22265625 C-10.90783659 -4.47603364 -6.19633938 -2.89813039 0 0 Z " fill="#FBF1D0" transform="translate(138.66796875,32.22265625)"/>
<path d="M0 0 C5.76900919 3.0981716 8.88800872 6.80166661 11.375 12.8125 C11.6674541 15.65287833 11.81276886 18.27578541 11.80737305 21.11279297 C11.8175647 21.92321548 11.82775635 22.733638 11.83825684 23.56861877 C11.86830077 26.23071279 11.8776395 28.89244647 11.88671875 31.5546875 C11.90357183 33.40700468 11.92172292 35.25931046 11.94111633 37.11160278 C11.98855414 41.9744104 12.01840373 46.83717181 12.04455566 51.70013428 C12.07439257 56.66736982 12.12091216 61.63444628 12.16601562 66.6015625 C12.25197798 76.33845835 12.31935471 86.07538699 12.375 95.8125 C13.31311523 95.26400391 14.25123047 94.71550781 15.21777344 94.15039062 C16.47318062 93.42295843 17.72872163 92.69575716 18.984375 91.96875 C19.59974121 91.60813477 20.21510742 91.24751953 20.84912109 90.87597656 C33.08925514 83.8125 33.08925514 83.8125 39.375 83.8125 C39.375 96.0225 39.375 108.2325 39.375 120.8125 C36.405 122.4625 33.435 124.1125 30.375 125.8125 C20.24743814 132.94596845 14.68604013 142.72795495 12.375 154.8125 C10.83362381 167.68716121 12.86562843 179.03109699 20.6875 189.6875 C28.22551234 198.53858545 36.72266369 205.22555998 48.625 206.4375 C51.8698473 206.9876468 53.02870974 207.39906413 55.16796875 209.953125 C56.3015237 211.8378957 57.40133011 213.74323775 58.47265625 215.6640625 C63.50210894 223.98796162 70.88878648 230.9430467 78.79296875 236.5078125 C79.31503906 236.93835938 79.83710938 237.36890625 80.375 237.8125 C80.375 238.4725 80.375 239.1325 80.375 239.8125 C72.41429935 242.40334261 65.10672372 243.36169749 56.75 243.3125 C55.61280518 243.30677979 54.47561035 243.30105957 53.30395508 243.29516602 C30.76129977 242.82117178 12.62408978 232.49397309 -3.16845703 216.77636719 C-19.34091291 199.8624361 -23.93308563 178.60543361 -23.91552734 155.8737793 C-23.92152533 154.30702906 -23.92833375 152.74028174 -23.93588257 151.17353821 C-23.95340698 146.95488897 -23.95823177 142.73632105 -23.95951414 138.51763892 C-23.96094246 135.87755806 -23.96522454 133.23749745 -23.97050858 130.59742165 C-23.98895413 121.37572556 -23.99718486 112.15408698 -23.99560547 102.93237305 C-23.99440108 94.35138695 -24.01557561 85.77065114 -24.0470928 77.18972844 C-24.07325395 69.80258974 -24.08397304 62.41553293 -24.08269465 55.02834827 C-24.08218557 50.62453384 -24.08784071 46.22094294 -24.10905075 41.81717491 C-24.12843405 37.68096414 -24.12855726 33.54519047 -24.11401749 29.40896416 C-24.11192937 27.89447133 -24.11663054 26.37995108 -24.1287384 24.86550522 C-24.2350591 10.64325426 -24.2350591 10.64325426 -19.625 4.8125 C-13.41549944 -0.93128802 -8.32384217 -2.72677588 0 0 Z " fill="#FAF0CF" transform="translate(57.625,30.1875)"/>
<path d="M0 0 C1.15757812 0.30679688 2.31515625 0.61359375 3.5078125 0.9296875 C23.82127615 6.97784403 39.83247109 20.63105519 50.16796875 39.08544922 C55.75289416 49.62866377 59.76300048 60.67595369 63.69116211 71.91748047 C70.2627706 90.50521118 78.83747365 108.87227845 97.0625 118.375 C110.21293637 124.50965363 124.09258589 124.2136986 138.36328125 124.4296875 C150.52466406 124.75580279 150.52466406 124.75580279 155.64453125 129.53515625 C160.41109076 135.76834946 160.72563107 140.20202102 160 148 C157.68387827 152.89948827 154.31204659 155.85579936 150 159 C131.71232854 165.42642097 101.6898508 160.28418626 84.71875 152.39453125 C83.8215625 151.93433594 82.924375 151.47414063 82 151 C81.0203125 150.50886719 80.040625 150.01773438 79.03125 149.51171875 C52.41668236 135.14122411 39.4947108 108.24316981 30 80.875 C23.2695344 61.51817066 16.75354525 46.72713194 -2.0546875 36.9296875 C-12.48348427 32.15561609 -24.18145027 33.09029298 -34.8046875 36.6484375 C-39.95279016 38.82599682 -44.42412409 41.82439213 -49 45 C-49.99 45.495 -49.99 45.495 -51 46 C-51 32.47 -51 18.94 -51 5 C-34.2599776 -1.97500933 -17.81145816 -4.79345191 0 0 Z " fill="#FAF0CE" transform="translate(210,111)"/>
<path d="M0 0 C0.33 0.66 0.66 1.32 1 2 C-0.794375 2.12375 -0.794375 2.12375 -2.625 2.25 C-6.92086211 2.75181752 -9.45990798 4.53016836 -13 7 C-13.99 6.67 -14.98 6.34 -16 6 C-10.43869062 1.18019853 -7.6034286 -0.14346092 0 0 Z " fill="#DFDDC7" transform="translate(131,29)"/>
<path d="M0 0 C2.08432499 3.12648749 3.28558611 6.05730868 4.625 9.5625 C5.07101563 10.71878906 5.51703125 11.87507812 5.9765625 13.06640625 C7 16 7 16 7 18 C6.34 18 5.68 18 5 18 C5 17.34 5 16.68 5 16 C4.34 16 3.68 16 3 16 C2.67 15.01 2.34 14.02 2 13 C1.34 13 0.68 13 0 13 C0 12.34 0 11.68 0 11 C0.66 11 1.32 11 2 11 C1.67 10.113125 1.34 9.22625 1 8.3125 C0.08777857 5.29076653 -0.18330958 3.11626294 0 0 Z " fill="#24251E" transform="translate(112,208)"/>
<path d="M0 0 C1.2684375 0.495 1.2684375 0.495 2.5625 1 C2.5625 1.33 2.5625 1.66 2.5625 2 C-2.0575 2.33 -6.6775 2.66 -11.4375 3 C-11.7675 2.01 -12.0975 1.02 -12.4375 0 C-8.41501725 -2.01124138 -4.18016888 -1.21604913 0 0 Z " fill="#DCD9C4" transform="translate(57.4375,30)"/>
<path d="M0 0 C0.66 0.99 1.32 1.98 2 3 C-2.625 7.875 -2.625 7.875 -6 9 C-4.68775452 5.06326356 -3.08089673 2.77280706 0 0 Z " fill="#E8E4CF" transform="translate(41,32)"/>
<path d="M0 0 C-0.66 1.65 -1.32 3.3 -2 5 C-2.99 4.34 -3.98 3.68 -5 3 C-5.99 2.67 -6.98 2.34 -8 2 C-4.77208445 -0.1519437 -3.71599191 -0.20086443 0 0 Z " fill="#22221D" transform="translate(214,268)"/>
<path d="M0 0 C0.33 0 0.66 0 1 0 C1.33 3.3 1.66 6.6 2 10 C1.34 10 0.68 10 0 10 C-0.74926071 6.33694766 -1.2380014 3.57644848 0 0 Z " fill="#313129" transform="translate(34,202)"/>
<path d="M0 0 C0 0.99 0 1.98 0 3 C-2.5 5.1875 -2.5 5.1875 -5 7 C-5.66 6.67 -6.32 6.34 -7 6 C-4.69 4.02 -2.38 2.04 0 0 Z " fill="#25251C" transform="translate(87,156)"/>
<path d="M0 0 C0.99 0.33 1.98 0.66 3 1 C1.35 2.65 -0.3 4.3 -2 6 C-2.66 5.34 -3.32 4.68 -4 4 C-2.68 2.68 -1.36 1.36 0 0 Z " fill="#ECE6CB" transform="translate(85,154)"/>
</svg>
